<?xml version="1.0" encoding="iso-8859-1"?>
<!-- Uploaded to: SVG Repo, www.svgrepo.com, Generator: SVG Repo Mixer Tools -->
<!DOCTYPE svg PUBLIC "-//W3C//DTD SVG 1.1//EN" "http://www.w3.org/Graphics/SVG/1.1/DTD/svg11.dtd">
<svg fill="#000000" version="1.1" id="Capa_1" xmlns="http://www.w3.org/2000/svg" xmlns:xlink="http://www.w3.org/1999/xlink" 
	 width="800px" height="800px" viewBox="0 0 81.016 81.016"
	 xml:space="preserve">
<g>
	<path d="M54.321,6.973H26.695C29.833,2.749,34.842,0,40.509,0C46.174,0,51.184,2.749,54.321,6.973z M39.807,13.684v2.211
		c0,2.464-2.004,4.469-4.469,4.469H24.651c-0.374,0-0.732-0.061-1.08-0.147c1.421,8.075,8.454,14.218,16.938,14.218
		c8.456,0,15.474-6.104,16.924-14.143c-0.234,0.038-0.473,0.072-0.721,0.072H46.026c-2.463,0-4.47-2.005-4.47-4.469v-2.211H39.807z
		 M44.4,39.233h-7.543c-0.623,0-1.127,0.502-1.127,1.125l3.141,6.492h3.613l3.041-6.492C45.525,39.735,45.021,39.233,44.4,39.233z
		 M69.854,57.648v17.869h-0.121l-1.15,0.584C68,76.395,58.609,81.016,42.41,81.016c-8.295,0-18.373-1.211-29.971-4.834l-1.232-0.385
		l-0.045-0.279V57.648c0-9.115,5.563-16.957,13.47-20.308V37.34h0.002c2.636-1.117,5.531-1.734,8.569-1.734h14.607
		C59.967,35.606,69.854,45.494,69.854,57.648z M24.632,39.944c-6.57,3.195-11.122,9.919-11.122,17.705V73.17l-0.008,0.549
		c3.892,1.215,7.601,2.139,11.13,2.84V51.668h-0.499v-5.625h0.499V39.944z M52.676,38.586c-1.56-0.398-3.184-0.633-4.865-0.633
		H33.203c-1.936,0-3.802,0.292-5.571,0.814v7.275h0.501v5.625h-0.501v25.44c10.111,1.687,18.564,1.471,25.043,0.607V51.668h-0.5
		v-5.625h0.5V38.586z M67.508,57.648c0-8.063-4.877-15.004-11.832-18.047v6.441h0.5v5.625h-0.5V77.25
		c7.539-1.342,11.703-3.406,11.795-3.453l0.037-0.627V57.648z M42.146,47.527h-3.039c-0.119,0-0.217,0.09-0.225,0.209l-1.465,22.404
		c-0.002,0.049,0.01,0.096,0.035,0.135l2.928,4.617c0.041,0.064,0.111,0.104,0.186,0.104c0.002,0,0.004,0,0.006,0
		c0.074,0,0.143-0.035,0.186-0.101l3.152-4.613c0.027-0.043,0.043-0.092,0.037-0.145l-1.574-22.402
		C42.363,47.617,42.266,47.527,42.146,47.527z M21.917,15.668v-3.969c0-2.011,1.703-3.646,3.795-3.646h30.186
		c2.092,0,3.795,1.636,3.795,3.646v3.969c0,2.011-1.703,3.646-3.795,3.646h-9.062c-2.093,0-3.796-1.636-3.796-3.646v-2.809h-4.521
		v2.809c0,2.011-1.702,3.646-3.795,3.646h-9.012C23.62,19.315,21.917,17.679,21.917,15.668z M23.917,15.668
		c0,0.908,0.805,1.646,1.795,1.646h9.012c0.989,0,1.795-0.738,1.795-1.646v-4.809h8.521v4.809c0,0.908,0.806,1.646,1.796,1.646
		h9.062c0.988,0,1.795-0.738,1.795-1.646v-3.969c0-0.908-0.807-1.646-1.795-1.646H25.712c-0.99,0-1.795,0.738-1.795,1.646V15.668z"
		/>
</g>
</svg>